# Blender v2.74 (sub 0) OBJ File: ''
# www.blender.org
mtllib waterfall.mtl
o NurbsCurve_Mesh
v -24.750000 74.985603 7.436403
v -24.750000 37.979401 2.806402
v -24.750000 37.979401 2.806402
v -24.750000 518.716187 226.702423
v -24.750000 502.325378 222.217224
v -24.750000 502.325378 222.217224
v -24.750000 270.795013 75.484413
v -24.750000 249.597595 61.945210
v -24.750000 249.597595 61.945210
v -24.750000 593.684998 364.549622
v -24.750000 587.235596 333.452026
v -24.750000 587.235596 333.452026
v -24.750000 385.784424 175.262817
v -24.750000 369.652222 163.842819
v -24.750000 369.652222 163.842819
v -24.749950 485.289612 219.043610
v -24.749950 485.289612 219.043610
v -24.750000 226.141800 49.678413
v -24.750000 226.141800 49.678413
v -24.750000 579.366028 306.156036
v -24.750000 579.366028 306.156036
v -24.750000 353.649017 151.244415
v -24.750000 353.649017 151.244415
v -24.749950 468.382782 214.692017
v -24.749950 468.382782 214.692017
v -24.750000 200.427597 38.684410
v -24.750000 200.427597 38.684410
v -24.750000 570.076782 282.662048
v -24.750000 570.076782 282.662048
v -24.750000 337.775421 137.468414
v -24.750000 337.775421 137.468414
v -24.749950 451.605011 209.162018
v -24.749950 451.605011 209.162018
v -24.750000 172.454391 28.963207
v -24.750000 172.454391 28.963207
v -24.750000 559.366760 262.969238
v -24.750000 559.366760 262.969238
v -24.750000 322.030212 122.514015
v -24.750000 322.030212 122.514015
v -24.749950 434.956207 202.454422
v -24.749950 434.956207 202.454422
v -24.750000 142.223404 20.514805
v -24.750000 142.223404 20.514805
v -24.750000 547.236572 247.078827
v -24.750000 547.236572 247.078827
v -24.750000 306.414581 106.382019
v -24.750000 306.414581 106.382019
v -24.749950 418.436401 194.568405
v -24.749950 418.436401 194.568405
v -24.750000 109.734001 13.339206
v -24.750000 109.734001 13.339206
v -24.750000 533.686218 234.989624
v -24.750000 533.686218 234.989624
v -24.750000 289.734009 90.296814
v -24.750000 289.734009 90.296814
v -24.750000 402.046204 185.504807
v -24.750000 402.046204 185.504807
v -24.750000 74.985603 7.436403
v -24.750000 518.716187 226.702423
v -24.750000 270.795013 75.484413
v -24.750000 598.714172 399.449249
v -24.750000 593.684998 364.549622
v -24.750000 385.784424 175.262817
v 24.507450 402.046204 185.504807
v 24.507450 418.436401 194.568405
v 24.507450 74.985603 7.436403
v 24.507450 109.734001 13.339206
v 24.507450 518.716187 226.702423
v 24.507450 533.686218 234.989624
v 24.507450 270.795013 75.484413
v 24.507450 289.734009 90.296814
v 24.507450 593.684998 364.549622
v 24.507450 598.714172 399.449249
v 24.507450 385.784424 175.262817
v 24.507450 37.979401 2.806402
v 24.507450 502.325378 222.217224
v 24.507450 249.597595 61.945210
v 24.507450 587.235596 333.452026
v 24.507450 369.652222 163.842819
v -24.801100 -0.030505 0.018770
v 24.687050 0.005564 -0.201887
v 24.507450 485.289612 219.043610
v 24.507450 226.141800 49.678413
v 24.507450 579.366028 306.156036
v 24.507450 353.649017 151.244415
v 24.507450 468.382782 214.692017
v 24.507450 200.427597 38.684410
v 24.507450 570.076782 282.662048
v 24.507450 337.775421 137.468414
v 24.507450 451.605011 209.162018
v 24.507450 172.454391 28.963207
v 24.507450 559.366760 262.969238
v 24.507450 322.030212 122.514015
v 24.507450 434.956207 202.454422
v 24.507450 142.223404 20.514805
v 24.507450 547.236572 247.078827
v 24.507450 306.414581 106.382019
v -24.750000 598.714172 399.449249
vt 0.000000 1.000000
vt 0.999998 0.465271
vt 0.000002 0.465271
vt 0.000002 0.487933
vt 1.000000 0.020037
vt 0.000004 0.020037
vt 0.000004 0.034821
vt 0.999996 0.715592
vt 0.000000 0.715592
vt 0.000000 0.761116
vt 0.999999 0.190256
vt 0.000003 0.190256
vt 0.000003 0.227284
vt 0.999996 0.970159
vt 0.000000 0.970159
vt 0.999998 0.439665
vt 0.000002 0.439665
vt 1.000000 0.008430
vt 0.000004 0.008430
vt 0.999996 0.681115
vt 0.000000 0.681115
vt 0.999999 0.156407
vt 0.000003 0.156407
vt 0.999996 0.940513
vt 0.000000 0.940513
vt 0.999998 0.411116
vt 0.000002 0.411116
vt 1.000000 0.000000
vt 0.000004 0.000000
vt 0.999996 0.639064
vt 0.000000 0.639064
vt 0.999999 0.125735
vt 0.000003 0.125735
vt 0.999996 0.907963
vt 0.000000 0.907963
vt 0.999998 0.379624
vt 0.000002 0.379624
vt 0.999996 0.597170
vt 0.000000 0.597170
vt 1.000000 0.098240
vt 0.000004 0.098240
vt 0.999996 0.874058
vt 0.000000 0.874058
vt 0.999998 0.345188
vt 0.000003 0.345188
vt 0.999996 0.556984
vt 0.000000 0.556984
vt 1.000000 0.073923
vt 0.000004 0.073923
vt 0.999996 0.838799
vt 0.000000 0.838799
vt 0.999999 0.307810
vt 0.000003 0.307810
vt 0.999996 0.524705
vt 0.000000 0.524705
vt 1.000000 0.052783
vt 0.000004 0.052783
vt 0.999996 0.800635
vt 0.000000 0.800635
vt 0.999999 0.267488
vt 0.000003 0.267488
vt 0.999998 0.487934
vt 1.000000 0.034821
vt 0.999996 0.761116
vt 0.999999 0.227284
vt 0.999996 1.000000
vn 0.000000 0.000000 1.000000
vn 0.000000 -0.483900 0.875100
vn 0.000000 -0.167500 0.985900
vn 0.000000 -0.484300 0.874900
vn 0.000000 -0.616100 0.787700
vn 0.000000 -0.989800 0.142600
vn 0.000000 -0.532900 0.846200
vn 0.000000 -0.124100 0.992300
vn 0.000000 -0.263900 0.964500
vn 0.000000 -0.538300 0.842800
vn 0.000000 -0.979200 0.203100
vn 0.000000 -0.577800 0.816200
vn 0.004500 -0.079000 0.996900
vn 0.000000 -0.183100 0.983100
vn 0.000000 -0.463400 0.886100
vn 0.000000 -0.960900 0.277000
vn 0.000000 -0.618600 0.785700
vn 0.000000 -0.249300 0.968400
vn 0.000000 -0.393100 0.919500
vn 0.000000 -0.929900 0.367700
vn 0.000000 -0.655400 0.755200
vn 0.000000 -0.313000 0.949700
vn 0.000000 -0.328300 0.944600
vn 0.000000 -0.878500 0.477800
vn 0.000000 -0.688700 0.725100
vn 0.000000 -0.373700 0.927600
vn 0.000000 -0.373700 0.927500
vn 0.000000 -0.269100 0.963100
vn 0.000000 -0.794900 0.606800
vn 0.000000 -0.718500 0.695500
vn 0.000000 -0.430800 0.902400
vn 0.000000 -0.215700 0.976500
vn 0.000000 -0.665700 0.746200
vn 0.000000 -0.694100 0.719800
vn 0.000000 -0.073100 0.997300
usemtl None
s 1
f 1/1/1 2/1/1 3/1/1
f 4/1/1 5/1/1 6/1/1
f 7/1/1 8/1/1 9/1/1
f 10/1/1 11/1/1 12/1/1
f 13/1/1 14/1/1 15/1/1
f 5/1/1 16/1/1 17/1/1
f 8/1/1 18/1/1 19/1/1
f 11/1/1 20/1/1 21/1/1
f 14/1/1 22/1/1 23/1/1
f 16/1/1 24/1/1 25/1/1
f 18/1/1 26/1/1 27/1/1
f 20/1/1 28/1/1 29/1/1
f 22/1/1 30/1/1 31/1/1
f 24/1/1 32/1/1 33/1/1
f 26/1/1 34/1/1 35/1/1
f 28/1/1 36/1/1 37/1/1
f 30/1/1 38/1/1 39/1/1
f 32/1/1 40/1/1 41/1/1
f 34/1/1 42/1/1 43/1/1
f 36/1/1 44/1/1 45/1/1
f 38/1/1 46/1/1 47/1/1
f 40/1/1 48/1/1 49/1/1
f 42/1/1 50/1/1 51/1/1
f 44/1/1 52/1/1 53/1/1
f 46/1/1 54/1/1 55/1/1
f 48/1/1 56/1/1 57/1/1
f 50/1/1 1/1/1 58/1/1
f 52/1/1 4/1/1 59/1/1
f 54/1/1 7/1/1 60/1/1
f 61/1/1 10/1/1 62/1/1
f 56/1/1 13/1/1 63/1/1
f 57/2/2 64/3/2 65/4/2
f 58/5/3 66/6/3 67/7/3
f 59/8/4 68/9/4 69/10/4
f 60/11/5 70/12/5 71/13/5
f 62/14/6 72/15/6 73/1/6
f 63/16/7 74/17/7 64/3/7
f 3/18/8 75/19/8 66/6/8
f 6/20/9 76/21/9 68/9/9
f 9/22/10 77/23/10 70/12/10
f 12/24/11 78/25/11 72/15/11
f 15/26/12 79/27/12 74/17/12
f 80/28/13 81/29/13 75/19/13
f 17/30/14 82/31/14 76/21/14
f 19/32/15 83/33/15 77/23/15
f 21/34/16 84/35/16 78/25/16
f 23/36/17 85/37/17 79/27/17
f 25/38/18 86/39/18 82/31/18
f 27/40/19 87/41/19 83/33/19
f 29/42/20 88/43/20 84/35/20
f 23/36/21 31/44/21 89/45/21
f 33/46/22 90/47/22 86/39/22
f 35/48/23 91/49/23 87/41/23
f 37/50/24 92/51/24 88/43/24
f 39/52/25 93/53/25 89/45/25
f 41/54/26 94/55/27 90/47/27
f 43/56/28 95/57/28 91/49/28
f 45/58/29 96/59/29 92/51/29
f 47/60/30 97/61/30 93/53/30
f 49/62/31 65/4/31 94/55/31
f 51/63/32 67/7/32 95/57/32
f 53/64/33 69/10/33 96/59/33
f 47/60/34 55/65/34 71/13/34
f 58/1/1 1/1/1 3/1/1
f 59/1/1 4/1/1 6/1/1
f 60/1/1 7/1/1 9/1/1
f 62/1/1 10/1/1 12/1/1
f 63/1/1 13/1/1 15/1/1
f 6/1/1 5/1/1 17/1/1
f 9/1/1 8/1/1 19/1/1
f 12/1/1 11/1/1 21/1/1
f 15/1/1 14/1/1 23/1/1
f 17/1/1 16/1/1 25/1/1
f 19/1/1 18/1/1 27/1/1
f 21/1/1 20/1/1 29/1/1
f 23/1/1 22/1/1 31/1/1
f 25/1/1 24/1/1 33/1/1
f 27/1/1 26/1/1 35/1/1
f 29/1/1 28/1/1 37/1/1
f 31/1/1 30/1/1 39/1/1
f 33/1/1 32/1/1 41/1/1
f 35/1/1 34/1/1 43/1/1
f 37/1/1 36/1/1 45/1/1
f 39/1/1 38/1/1 47/1/1
f 41/1/1 40/1/1 49/1/1
f 43/1/1 42/1/1 51/1/1
f 45/1/1 44/1/1 53/1/1
f 47/1/1 46/1/1 55/1/1
f 49/1/1 48/1/1 57/1/1
f 51/1/1 50/1/1 58/1/1
f 53/1/1 52/1/1 59/1/1
f 55/1/1 54/1/1 60/1/1
f 98/1/1 61/1/1 62/1/1
f 57/1/1 56/1/1 63/1/1
f 49/62/2 57/2/2 65/4/2
f 51/63/3 58/5/3 67/7/3
f 53/64/4 59/8/4 69/10/4
f 55/65/5 60/11/5 71/13/5
f 98/66/6 62/14/6 73/1/6
f 57/2/7 63/16/7 64/3/7
f 58/5/8 3/18/8 66/6/8
f 59/8/9 6/20/9 68/9/9
f 60/11/10 9/22/10 70/12/10
f 62/14/11 12/24/11 72/15/11
f 63/16/12 15/26/12 74/17/12
f 3/18/35 80/28/35 75/19/35
f 6/20/14 17/30/14 76/21/14
f 9/22/15 19/32/15 77/23/15
f 12/24/16 21/34/16 78/25/16
f 15/26/17 23/36/17 79/27/17
f 17/30/18 25/38/18 82/31/18
f 19/32/19 27/40/19 83/33/19
f 21/34/20 29/42/20 84/35/20
f 85/37/21 23/36/21 89/45/21
f 25/38/22 33/46/22 86/39/22
f 27/40/23 35/48/23 87/41/23
f 29/42/24 37/50/24 88/43/24
f 31/44/25 39/52/25 89/45/25
f 33/46/26 41/54/26 90/47/27
f 35/48/28 43/56/28 91/49/28
f 37/50/29 45/58/29 92/51/29
f 39/52/30 47/60/30 93/53/30
f 41/54/31 49/62/31 94/55/31
f 43/56/32 51/63/32 95/57/32
f 45/58/33 53/64/33 96/59/33
f 97/61/34 47/60/34 71/13/34
