# Blender v2.74 (sub 0) OBJ File: ''
# www.blender.org
mtllib river.mtl
o NurbsPath_Mesh
v -0.291200 0.000000 -13.165176
v -0.292567 0.000000 -13.656960
v -0.292567 0.000000 -13.656960
v -0.686479 -0.000000 -1.939933
v -0.713289 -0.000000 -2.292424
v -0.713289 -0.000000 -2.292424
v -0.670627 -0.000000 -7.071693
v -0.645548 -0.000000 -7.358811
v -0.645548 -0.000000 -7.358811
v -0.438910 0.000000 -17.105888
v -0.491836 0.000000 -17.774876
v -0.491836 0.000000 -17.774876
v -0.794630 -0.000000 -4.218981
v -0.795499 -0.000000 -4.515812
v -0.795499 -0.000000 -4.515812
v -0.477071 0.000000 -9.198274
v -0.449029 0.000000 -9.533441
v -0.449029 0.000000 -9.533441
v -0.315607 0.000000 -11.809023
v -0.303232 0.000000 -12.242336
v -0.303232 0.000000 -12.242336
v -0.582977 -0.000000 -0.814041
v -0.621306 -0.000000 -1.201444
v -0.621306 -0.000000 -1.201444
v -0.735062 -0.000000 -6.224817
v -0.715631 -0.000000 -6.505611
v -0.715631 -0.000000 -6.505611
v -0.332688 0.000000 -15.267582
v -0.359958 0.000000 -15.853460
v -0.359958 0.000000 -15.853460
v -0.563308 -0.000000 -8.247730
v -0.534567 -0.000000 -8.556422
v -0.534567 -0.000000 -8.556422
v -0.770729 -0.000000 -3.291559
v -0.782337 -0.000000 -3.607644
v -0.782337 -0.000000 -3.607644
v -0.778424 -0.000000 -5.380701
v -0.766659 -0.000000 -5.663240
v -0.766659 -0.000000 -5.663240
v -0.372340 0.000000 -10.608212
v -0.350627 0.000000 -10.993052
v -0.350627 0.000000 -10.993052
v -0.299568 0.000000 -14.170513
v -0.299568 0.000000 -14.170513
v -0.736251 -0.000000 -2.634700
v -0.736251 -0.000000 -2.634700
v -0.619109 -0.000000 -7.649892
v -0.619109 -0.000000 -7.649892
v -0.792998 -0.000000 -4.807828
v -0.792998 -0.000000 -4.807828
v -0.421961 0.000000 -9.879459
v -0.421961 0.000000 -9.879459
v -0.294928 0.000000 -12.694014
v -0.294928 0.000000 -12.694014
v -0.655815 -0.000000 -1.576509
v -0.655815 -0.000000 -1.576509
v -0.694073 -0.000000 -6.787601
v -0.694073 -0.000000 -6.787601
v -0.395160 0.000000 -16.465824
v -0.395160 0.000000 -16.465824
v -0.790276 -0.000000 -3.916523
v -0.790276 -0.000000 -3.916523
v -0.505705 0.000000 -8.872937
v -0.505705 0.000000 -8.872937
v -0.331563 0.000000 -11.392960
v -0.331563 0.000000 -11.392960
v -0.752141 -0.000000 -5.944322
v -0.752141 -0.000000 -5.944322
v -0.495039 -0.000000 0.000497
v -0.540869 -0.000000 -0.413617
v -0.540869 -0.000000 -0.413617
v -0.312752 0.000000 -14.706997
v -0.312752 0.000000 -14.706997
v -0.591595 -0.000000 -7.945878
v -0.591595 -0.000000 -7.945878
v -0.755385 -0.000000 -2.967495
v -0.755385 -0.000000 -2.967495
v -0.787257 -0.000000 -5.095844
v -0.787257 -0.000000 -5.095844
v -0.396260 0.000000 -10.237368
v -0.396260 0.000000 -10.237368
v -0.291200 0.000000 -13.165176
v -0.686479 -0.000000 -1.939933
v -0.670627 -0.000000 -7.071693
v -0.438910 0.000000 -17.105888
v -0.477071 0.000000 -9.198274
v -0.794630 -0.000000 -4.218981
v -0.315607 0.000000 -11.809023
v -0.582977 -0.000000 -0.814041
v -0.735062 -0.000000 -6.224817
v -0.332688 0.000000 -15.267582
v -0.770729 -0.000000 -3.291559
v -0.563308 -0.000000 -8.247730
v -0.778424 -0.000000 -5.380701
v -0.372340 0.000000 -10.608212
v -0.359958 0.000000 -15.853460
v -0.782337 -0.000000 -3.607644
v -0.534567 -0.000000 -8.556422
v -0.766659 -0.000000 -5.663240
v -0.350627 0.000000 -10.993052
v -0.299568 0.000000 -14.170513
v -0.619109 -0.000000 -7.649892
v -0.736251 -0.000000 -2.634700
v -0.792998 -0.000000 -4.807828
v -0.421961 0.000000 -9.879459
v -0.294928 0.000000 -12.694014
v -0.655815 -0.000000 -1.576509
v -0.694073 -0.000000 -6.787601
v -0.395160 0.000000 -16.465824
v -0.790276 -0.000000 -3.916523
v -0.505705 0.000000 -8.872937
v -0.331563 0.000000 -11.392960
v -0.495039 -0.000000 0.000497
v -0.540869 -0.000000 -0.413617
v -0.752141 -0.000000 -5.944322
v -0.312752 0.000000 -14.706997
v -0.755385 -0.000000 -2.967495
v -0.591595 -0.000000 -7.945878
v -0.787257 -0.000000 -5.095844
v -0.396260 0.000000 -10.237368
v -0.291200 0.000000 -13.165176
v -0.670627 -0.000000 -7.071693
v -0.686479 -0.000000 -1.939933
v -0.438910 0.000000 -17.105888
v -0.794630 -0.000000 -4.218981
v -0.477071 0.000000 -9.198274
v -0.315607 0.000000 -11.809023
v -0.582977 -0.000000 -0.814041
v -0.735062 -0.000000 -6.224817
v -0.332688 0.000000 -15.267582
v -0.563308 -0.000000 -8.247730
v -0.770729 -0.000000 -3.291559
v -0.372340 0.000000 -10.608212
v -0.778424 -0.000000 -5.380701
v -0.292567 0.000000 -13.656960
v -0.713289 -0.000000 -2.292424
v -0.645548 -0.000000 -7.358811
v -0.491836 0.000000 -17.874195
v -0.795499 -0.000000 -4.515812
v -0.449029 0.000000 -9.533441
v -0.303232 0.000000 -12.242336
v -0.621306 -0.000000 -1.201444
v -0.715631 -0.000000 -6.505611
v 0.220916 -0.000000 -6.096618
v 0.209151 -0.000000 -5.814078
v 0.636948 0.000000 -11.426429
v 0.615235 0.000000 -11.041590
v 0.688007 0.000000 -14.603890
v 0.695008 0.000000 -14.090339
v 0.251324 -0.000000 -3.068078
v 0.368466 -0.000000 -8.083269
v 0.342027 -0.000000 -7.792190
v 0.194577 -0.000000 -5.241206
v 0.192076 -0.000000 -4.949192
v 0.565614 0.000000 -10.312838
v 0.538545 0.000000 -9.966818
v 0.692647 0.000000 -13.127393
v 0.684343 0.000000 -12.675715
v 0.331760 -0.000000 -2.009887
v 0.293502 -0.000000 -7.220979
v 0.271944 -0.000000 -6.938990
v 0.592415 0.000000 -16.899204
v 0.481870 0.000000 -9.306315
v 0.453008 0.000000 -8.989800
v 0.197299 -0.000000 -4.349902
v 0.656012 0.000000 -11.826338
v -0.495039 -0.000000 0.000497
v 0.446706 -0.000000 -0.846994
v 0.235434 -0.000000 -6.377700
v 0.674823 0.000000 -15.140375
v 0.232190 -0.000000 -3.400875
v 0.395980 -0.000000 -8.379255
v 0.200317 -0.000000 -5.529223
v 0.591314 0.000000 -10.670746
v 0.696375 0.000000 -13.598555
v 0.301095 -0.000000 -2.373311
v 0.316948 -0.000000 -7.505072
v 0.548665 0.000000 -17.539267
v 0.192945 -0.000000 -4.652359
v 0.510504 0.000000 -9.631652
v 0.671968 0.000000 -12.242401
v 0.252513 -0.000000 -6.658195
v 0.404598 -0.000000 -1.247418
v 0.654887 0.000000 -15.700962
v 0.424267 -0.000000 -8.681108
v 0.216845 -0.000000 -3.724936
v 0.274285 -0.000000 -2.725801
v 0.495739 0.000000 -18.208256
v 0.366269 -0.000000 -1.634821
v 0.627617 0.000000 -16.286839
v 0.205238 -0.000000 -4.041022
v 0.492536 -0.000000 -0.004711
vt 0.000000 0.000000
vt 0.000000 0.119539
vt 0.000000 0.681283
vt 1.000000 0.641955
vt 1.000000 0.655893
vt 0.000000 0.414756
vt 1.000000 0.375427
vt 1.000000 0.394518
vt 0.000000 0.259507
vt 1.000000 0.220178
vt 1.000000 0.244988
vt 0.000000 0.843989
vt 0.000000 0.827792
vt 1.000000 0.788463
vt 0.000000 0.582076
vt 1.000000 0.542748
vt 1.000000 0.557373
vt 0.000000 0.723311
vt 1.000000 0.683983
vt 1.000000 0.698210
vt 0.000000 0.470155
vt 1.000000 0.430826
vt 1.000000 0.448131
vt 0.000000 0.331122
vt 1.000000 0.291794
vt 1.000000 0.313882
vt 0.000000 0.895266
vt 0.000000 0.877691
vt 1.000000 0.838362
vt 0.000000 0.625339
vt 1.000000 0.586010
vt 1.000000 0.600103
vt 0.000000 0.178898
vt 0.000000 0.149812
vt 1.000000 0.110483
vt 0.000000 0.520584
vt 1.000000 0.481255
vt 1.000000 0.497160
vt 0.000000 0.781397
vt 0.000000 0.766544
vt 1.000000 0.727216
vt 0.000000 0.394983
vt 1.000000 0.355654
vt 0.000000 1.000000
vt 0.000000 0.932035
vt 1.000000 0.892707
vt 0.000000 0.667365
vt 1.000000 0.628036
vt 0.000000 0.233698
vt 1.000000 0.194370
vt 0.000000 0.811985
vt 1.000000 0.772657
vt 0.000000 0.567193
vt 1.000000 0.527865
vt 0.000000 0.709218
vt 1.000000 0.669890
vt 0.000000 0.452298
vt 1.000000 0.412970
vt 0.000000 0.308174
vt 1.000000 0.268845
vt 0.000000 0.860610
vt 1.000000 0.821281
vt 0.000000 0.611108
vt 1.000000 0.571780
vt 1.000000 0.080210
vt 0.000000 0.751937
vt 1.000000 0.712609
vt 0.000000 0.504255
vt 1.000000 0.464926
vt 0.000000 0.374482
vt 1.000000 0.335154
vt 0.000000 0.653427
vt 1.000000 0.614099
vt 0.000000 0.913369
vt 1.000000 0.874041
vt 0.000000 0.206844
vt 1.000000 0.167516
vt 0.000000 0.552011
vt 1.000000 0.512683
vt 0.000000 0.796532
vt 1.000000 0.757204
vt 0.000000 0.695222
vt 0.000000 0.433846
vt 0.000000 0.284316
vt 1.000000 0.804660
vt 0.000000 0.596701
vt 1.000000 0.000000
vt 0.000000 0.487459
vt 0.000000 0.737539
vt 0.000000 0.353211
vt 1.000000 0.855937
vt 0.000000 0.639432
vt 1.000000 0.139569
vt 1.000000 0.742069
vt 0.000000 0.536488
vt 1.000000 1.000000
vn 0.000000 0.000000 1.000000
vn 0.000000 -1.000000 -0.000000
usemtl river
s off
f 1/1/1 2/1/1 3/1/1
f 4/1/1 5/1/1 6/1/1
f 7/1/1 8/1/1 9/1/1
f 10/1/1 11/1/1 12/1/1
f 13/1/1 14/1/1 15/1/1
f 16/1/1 17/1/1 18/1/1
f 19/1/1 20/1/1 21/1/1
f 22/1/1 23/1/1 24/1/1
f 25/1/1 26/1/1 27/1/1
f 28/1/1 29/1/1 30/1/1
f 31/1/1 32/1/1 33/1/1
f 34/1/1 35/1/1 36/1/1
f 37/1/1 38/1/1 39/1/1
f 40/1/1 41/1/1 42/1/1
f 2/1/1 43/1/1 44/1/1
f 5/1/1 45/1/1 46/1/1
f 8/1/1 47/1/1 48/1/1
f 14/1/1 49/1/1 50/1/1
f 17/1/1 51/1/1 52/1/1
f 20/1/1 53/1/1 54/1/1
f 23/1/1 55/1/1 56/1/1
f 26/1/1 57/1/1 58/1/1
f 29/1/1 59/1/1 60/1/1
f 35/1/1 61/1/1 62/1/1
f 32/1/1 63/1/1 64/1/1
f 41/1/1 65/1/1 66/1/1
f 38/1/1 67/1/1 68/1/1
f 69/1/1 70/1/1 71/1/1
f 43/1/1 72/1/1 73/1/1
f 47/1/1 74/1/1 75/1/1
f 45/1/1 76/1/1 77/1/1
f 49/1/1 78/1/1 79/1/1
f 51/1/1 80/1/1 81/1/1
f 53/1/1 1/1/1 82/1/1
f 55/1/1 4/1/1 83/1/1
f 57/1/1 7/1/1 84/1/1
f 59/1/1 10/1/1 85/1/1
f 63/1/1 16/1/1 86/1/1
f 61/1/1 13/1/1 87/1/1
f 65/1/1 19/1/1 88/1/1
f 70/1/1 22/1/1 89/1/1
f 67/1/1 25/1/1 90/1/1
f 72/1/1 28/1/1 91/1/1
f 76/1/1 34/1/1 92/1/1
f 74/1/1 31/1/1 93/1/1
f 78/1/1 37/1/1 94/1/1
f 80/1/1 40/1/1 95/1/1
f 91/1/1 30/1/1 96/1/1
f 92/1/1 36/1/1 97/1/1
f 93/1/1 33/1/1 98/1/1
f 94/1/1 39/1/1 99/1/1
f 95/1/1 42/1/1 100/1/1
f 3/1/1 44/1/1 101/1/1
f 9/1/1 48/1/1 102/1/1
f 6/1/1 46/1/1 103/1/1
f 15/1/1 50/1/1 104/1/1
f 18/1/1 52/1/1 105/1/1
f 21/1/1 54/1/1 106/1/1
f 24/1/1 56/1/1 107/1/1
f 27/1/1 58/1/1 108/1/1
f 30/1/1 60/1/1 109/1/1
f 36/1/1 62/1/1 110/1/1
f 33/1/1 64/1/1 111/1/1
f 42/1/1 66/1/1 112/1/1
f 113/1/1 71/1/1 114/1/1
f 39/1/1 68/1/1 115/1/1
f 44/1/1 73/1/1 116/1/1
f 46/1/1 77/1/1 117/1/1
f 48/1/1 75/1/1 118/1/1
f 50/1/1 79/1/1 119/1/1
f 52/1/1 81/1/1 120/1/1
f 54/1/1 82/1/1 121/1/1
f 58/1/1 84/1/1 122/1/1
f 56/1/1 83/1/1 123/1/1
f 60/1/1 85/1/1 124/1/1
f 62/1/1 87/1/1 125/1/1
f 64/1/1 86/1/1 126/1/1
f 66/1/1 88/1/1 127/1/1
f 71/1/1 89/1/1 128/1/1
f 68/1/1 90/1/1 129/1/1
f 73/1/1 91/1/1 130/1/1
f 75/1/1 93/1/1 131/1/1
f 77/1/1 92/1/1 132/1/1
f 81/1/1 95/1/1 133/1/1
f 79/1/1 94/1/1 134/1/1
f 82/1/1 3/1/1 135/1/1
f 83/1/1 6/1/1 136/1/1
f 84/1/1 9/1/1 137/1/1
f 85/2/2 12/1/2 138/1/2
f 87/1/1 15/1/1 139/1/1
f 86/1/1 18/1/1 140/1/1
f 88/1/1 21/1/1 141/1/1
f 89/1/1 24/1/1 142/1/1
f 90/1/1 27/1/1 143/1/1
f 99/3/2 144/4/2 145/5/2
f 100/6/2 146/7/2 147/8/2
f 101/9/2 148/10/2 149/11/2
f 136/12/2 103/13/2 150/14/2
f 102/15/2 151/16/2 152/17/2
f 104/18/2 153/19/2 154/20/2
f 105/21/2 155/22/2 156/23/2
f 106/24/2 157/25/2 158/26/2
f 142/27/2 107/28/2 159/29/2
f 108/30/2 160/31/2 161/32/2
f 96/33/2 109/34/2 162/35/2
f 111/36/2 163/37/2 164/38/2
f 97/39/2 110/40/2 165/41/2
f 112/42/2 166/43/2 146/7/2
f 167/44/2 114/45/2 168/46/2
f 115/47/2 169/48/2 144/4/2
f 101/9/2 116/49/2 170/50/2
f 103/13/2 117/51/2 171/52/2
f 118/53/2 172/54/2 151/16/2
f 119/55/2 173/56/2 153/19/2
f 120/57/2 174/58/2 155/22/2
f 121/59/2 175/60/2 157/25/2
f 107/28/2 123/61/2 176/62/2
f 122/63/2 177/64/2 160/31/2
f 109/34/2 124/2/2 178/65/2
f 125/66/2 179/67/2 165/41/2
f 126/68/2 180/69/2 163/37/2
f 127/70/2 181/71/2 166/43/2
f 129/72/2 182/73/2 169/48/2
f 114/45/2 128/74/2 183/75/2
f 116/49/2 130/76/2 184/77/2
f 131/78/2 185/79/2 172/54/2
f 117/51/2 132/80/2 186/81/2
f 134/82/2 145/5/2 173/56/2
f 133/83/2 147/8/2 174/58/2
f 135/84/2 149/11/2 175/60/2
f 123/61/2 136/12/2 187/85/2
f 137/86/2 152/17/2 177/64/2
f 124/2/2 138/1/2 188/87/2
f 140/88/2 156/23/2 180/69/2
f 139/89/2 154/20/2 179/67/2
f 141/90/2 158/26/2 181/71/2
f 128/74/2 142/27/2 189/91/2
f 143/92/2 161/32/2 182/73/2
f 130/76/2 96/33/2 190/93/2
f 132/80/2 97/39/2 191/94/2
f 98/95/2 164/38/2 185/79/2
f 82/1/1 1/1/1 3/1/1
f 83/1/1 4/1/1 6/1/1
f 84/1/1 7/1/1 9/1/1
f 85/1/1 10/1/1 12/1/1
f 87/1/1 13/1/1 15/1/1
f 86/1/1 16/1/1 18/1/1
f 88/1/1 19/1/1 21/1/1
f 89/1/1 22/1/1 24/1/1
f 90/1/1 25/1/1 27/1/1
f 91/1/1 28/1/1 30/1/1
f 93/1/1 31/1/1 33/1/1
f 92/1/1 34/1/1 36/1/1
f 94/1/1 37/1/1 39/1/1
f 95/1/1 40/1/1 42/1/1
f 3/1/1 2/1/1 44/1/1
f 6/1/1 5/1/1 46/1/1
f 9/1/1 8/1/1 48/1/1
f 15/1/1 14/1/1 50/1/1
f 18/1/1 17/1/1 52/1/1
f 21/1/1 20/1/1 54/1/1
f 24/1/1 23/1/1 56/1/1
f 27/1/1 26/1/1 58/1/1
f 30/1/1 29/1/1 60/1/1
f 36/1/1 35/1/1 62/1/1
f 33/1/1 32/1/1 64/1/1
f 42/1/1 41/1/1 66/1/1
f 39/1/1 38/1/1 68/1/1
f 113/1/1 69/1/1 71/1/1
f 44/1/1 43/1/1 73/1/1
f 48/1/1 47/1/1 75/1/1
f 46/1/1 45/1/1 77/1/1
f 50/1/1 49/1/1 79/1/1
f 52/1/1 51/1/1 81/1/1
f 54/1/1 53/1/1 82/1/1
f 56/1/1 55/1/1 83/1/1
f 58/1/1 57/1/1 84/1/1
f 60/1/1 59/1/1 85/1/1
f 64/1/1 63/1/1 86/1/1
f 62/1/1 61/1/1 87/1/1
f 66/1/1 65/1/1 88/1/1
f 71/1/1 70/1/1 89/1/1
f 68/1/1 67/1/1 90/1/1
f 73/1/1 72/1/1 91/1/1
f 77/1/1 76/1/1 92/1/1
f 75/1/1 74/1/1 93/1/1
f 79/1/1 78/1/1 94/1/1
f 81/1/1 80/1/1 95/1/1
f 130/1/1 91/1/1 96/1/1
f 132/1/1 92/1/1 97/1/1
f 131/1/1 93/1/1 98/1/1
f 134/1/1 94/1/1 99/1/1
f 133/1/1 95/1/1 100/1/1
f 135/1/1 3/1/1 101/1/1
f 137/1/1 9/1/1 102/1/1
f 136/1/1 6/1/1 103/1/1
f 139/1/1 15/1/1 104/1/1
f 140/1/1 18/1/1 105/1/1
f 141/1/1 21/1/1 106/1/1
f 142/1/1 24/1/1 107/1/1
f 143/1/1 27/1/1 108/1/1
f 96/1/1 30/1/1 109/1/1
f 97/1/1 36/1/1 110/1/1
f 98/1/1 33/1/1 111/1/1
f 100/1/1 42/1/1 112/1/1
f 167/1/1 113/1/1 114/1/1
f 99/1/1 39/1/1 115/1/1
f 101/1/1 44/1/1 116/1/1
f 103/1/1 46/1/1 117/1/1
f 102/1/1 48/1/1 118/1/1
f 104/1/1 50/1/1 119/1/1
f 105/1/1 52/1/1 120/1/1
f 106/1/1 54/1/1 121/1/1
f 108/1/1 58/1/1 122/1/1
f 107/1/1 56/1/1 123/1/1
f 109/1/1 60/1/1 124/1/1
f 110/1/1 62/1/1 125/1/1
f 111/1/1 64/1/1 126/1/1
f 112/1/1 66/1/1 127/1/1
f 114/1/1 71/1/1 128/1/1
f 115/1/1 68/1/1 129/1/1
f 116/1/1 73/1/1 130/1/1
f 118/1/1 75/1/1 131/1/1
f 117/1/1 77/1/1 132/1/1
f 120/1/1 81/1/1 133/1/1
f 119/1/1 79/1/1 134/1/1
f 121/1/1 82/1/1 135/1/1
f 123/1/1 83/1/1 136/1/1
f 122/1/1 84/1/1 137/1/1
f 124/2/1 85/2/1 138/1/1
f 125/1/1 87/1/1 139/1/1
f 126/1/1 86/1/1 140/1/1
f 127/1/1 88/1/1 141/1/1
f 128/1/1 89/1/1 142/1/1
f 129/1/1 90/1/1 143/1/1
f 134/82/2 99/3/2 145/5/2
f 133/83/2 100/6/2 147/8/2
f 135/84/2 101/9/2 149/11/2
f 187/85/2 136/12/2 150/14/2
f 137/86/2 102/15/2 152/17/2
f 139/89/2 104/18/2 154/20/2
f 140/88/2 105/21/2 156/23/2
f 141/90/2 106/24/2 158/26/2
f 189/91/2 142/27/2 159/29/2
f 143/92/2 108/30/2 161/32/2
f 190/93/2 96/33/2 162/35/2
f 98/95/2 111/36/2 164/38/2
f 191/94/2 97/39/2 165/41/2
f 100/6/2 112/42/2 146/7/2
f 192/96/2 167/44/2 168/46/2
f 99/3/2 115/47/2 144/4/2
f 148/10/2 101/9/2 170/50/2
f 150/14/2 103/13/2 171/52/2
f 102/15/2 118/53/2 151/16/2
f 104/18/2 119/55/2 153/19/2
f 105/21/2 120/57/2 155/22/2
f 106/24/2 121/59/2 157/25/2
f 159/29/2 107/28/2 176/62/2
f 108/30/2 122/63/2 160/31/2
f 162/35/2 109/34/2 178/65/2
f 110/40/2 125/66/2 165/41/2
f 111/36/2 126/68/2 163/37/2
f 112/42/2 127/70/2 166/43/2
f 115/47/2 129/72/2 169/48/2
f 168/46/2 114/45/2 183/75/2
f 170/50/2 116/49/2 184/77/2
f 118/53/2 131/78/2 172/54/2
f 171/52/2 117/51/2 186/81/2
f 119/55/2 134/82/2 173/56/2
f 120/57/2 133/83/2 174/58/2
f 121/59/2 135/84/2 175/60/2
f 176/62/2 123/61/2 187/85/2
f 122/63/2 137/86/2 177/64/2
f 178/65/2 124/2/2 188/87/2
f 126/68/2 140/88/2 180/69/2
f 125/66/2 139/89/2 179/67/2
f 127/70/2 141/90/2 181/71/2
f 183/75/2 128/74/2 189/91/2
f 129/72/2 143/92/2 182/73/2
f 184/77/2 130/76/2 190/93/2
f 186/81/2 132/80/2 191/94/2
f 131/78/2 98/95/2 185/79/2
