# Blender v2.74 (sub 0) OBJ File: ''
# www.blender.org
mtllib river.mtl
o NurbsPath_Mesh.001
v -14.560000 0.000023 -526.607056
v -14.628351 0.000024 -546.278381
v -14.628351 0.000024 -546.278381
v -34.323948 0.000003 -77.597321
v -35.664452 0.000004 -91.696960
v -35.664452 0.000004 -91.696960
v -33.531349 0.000012 -282.867706
v -32.277401 0.000013 -294.352448
v -32.277401 0.000013 -294.352448
v -21.945499 0.000030 -684.235535
v -24.591801 0.000031 -710.994995
v -24.591801 0.000031 -710.994995
v -39.731499 0.000007 -168.759232
v -39.774952 0.000008 -180.632477
v -39.774952 0.000008 -180.632477
v -23.853550 0.000016 -367.930939
v -22.451450 0.000016 -381.337616
v -22.451450 0.000016 -381.337616
v -15.780351 0.000020 -472.360901
v -15.161601 0.000021 -489.693451
v -15.161601 0.000021 -489.693451
v -29.148849 0.000001 -32.561642
v -31.065300 0.000002 -48.057762
v -31.065300 0.000002 -48.057762
v -36.753101 0.000011 -248.992676
v -35.781551 0.000011 -260.224426
v -35.781551 0.000011 -260.224426
v -16.634399 0.000026 -610.703247
v -17.997900 0.000027 -634.138428
v -17.997900 0.000027 -634.138428
v -28.165400 0.000014 -329.909210
v -26.728350 0.000015 -342.256897
v -26.728350 0.000015 -342.256897
v -38.536449 0.000005 -131.662354
v -39.116852 0.000006 -144.305756
v -39.116852 0.000006 -144.305756
v -38.921200 0.000009 -215.228043
v -38.332951 0.000010 -226.529602
v -38.332951 0.000010 -226.529602
v -18.617001 0.000018 -424.328491
v -17.531351 0.000019 -439.722046
v -17.531351 0.000019 -439.722046
v -14.978400 0.000024 -566.820557
v -14.978400 0.000024 -566.820557
v -36.812550 0.000004 -105.388000
v -36.812550 0.000004 -105.388000
v -30.955448 0.000013 -305.995667
v -30.955448 0.000013 -305.995667
v -39.649902 0.000008 -192.313110
v -39.649902 0.000008 -192.313110
v -21.098051 0.000017 -395.178375
v -21.098051 0.000017 -395.178375
v -14.746401 0.000022 -507.760559
v -14.746401 0.000022 -507.760559
v -32.790749 0.000002 -63.060360
v -32.790749 0.000002 -63.060360
v -34.703651 0.000012 -271.504028
v -34.703651 0.000012 -271.504028
v -19.757999 0.000028 -658.632935
v -19.757999 0.000028 -658.632935
v -39.513798 0.000006 -156.660919
v -39.513798 0.000006 -156.660919
v -25.285250 0.000015 -354.917480
v -25.285250 0.000015 -354.917480
v -16.578150 0.000020 -455.718384
v -16.578150 0.000020 -455.718384
v -37.607048 0.000010 -237.772888
v -37.607048 0.000010 -237.772888
v -24.751949 -0.000000 0.019880
v -27.043449 0.000000 -16.544682
v -27.043449 0.000000 -16.544682
v -15.637600 0.000025 -588.279907
v -15.637600 0.000025 -588.279907
v -29.579750 0.000014 -317.835114
v -29.579750 0.000014 -317.835114
v -37.769249 0.000005 -118.699799
v -37.769249 0.000005 -118.699799
v -39.362850 0.000009 -203.833755
v -39.362850 0.000009 -203.833755
v -19.813000 0.000018 -409.494690
v -19.813000 0.000018 -409.494690
v -14.560000 0.000023 -526.607056
v -34.323948 0.000003 -77.597321
v -33.531349 0.000012 -282.867706
v -21.945499 0.000030 -684.235535
v -23.853550 0.000016 -367.930939
v -39.731499 0.000007 -168.759232
v -15.780351 0.000020 -472.360901
v -29.148849 0.000001 -32.561642
v -36.753101 0.000011 -248.992676
v -16.634399 0.000026 -610.703247
v -38.536449 0.000005 -131.662354
v -28.165400 0.000014 -329.909210
v -38.921200 0.000009 -215.228043
v -18.617001 0.000018 -424.328491
v -17.997900 0.000027 -634.138428
v -39.116852 0.000006 -144.305756
v -26.728350 0.000015 -342.256897
v -38.332951 0.000010 -226.529602
v -17.531351 0.000019 -439.722046
v -14.978400 0.000024 -566.820557
v -30.955448 0.000013 -305.995667
v -36.812550 0.000004 -105.388000
v -39.649902 0.000008 -192.313110
v -21.098051 0.000017 -395.178375
v -14.746401 0.000022 -507.760559
v -32.790749 0.000002 -63.060360
v -34.703651 0.000012 -271.504028
v -19.757999 0.000028 -658.632935
v -39.513798 0.000006 -156.660919
v -25.285250 0.000015 -354.917480
v -16.578150 0.000020 -455.718384
v -24.751949 -0.000000 0.019880
v -27.043449 0.000000 -16.544682
v -37.607048 0.000010 -237.772888
v -15.637600 0.000025 -588.279907
v -37.769249 0.000005 -118.699799
v -29.579750 0.000014 -317.835114
v -39.362850 0.000009 -203.833755
v -19.813000 0.000018 -409.494690
v -14.560000 0.000023 -526.607056
v -33.531349 0.000012 -282.867706
v -34.323948 0.000003 -77.597321
v -21.945499 0.000030 -684.235535
v -39.731499 0.000007 -168.759232
v -23.853550 0.000016 -367.930939
v -15.780351 0.000020 -472.360901
v -29.148849 0.000001 -32.561642
v -36.753101 0.000011 -248.992676
v -16.634399 0.000026 -610.703247
v -28.165400 0.000014 -329.909210
v -38.536449 0.000005 -131.662354
v -18.617001 0.000018 -424.328491
v -38.921200 0.000009 -215.228043
v -14.628351 0.000024 -546.278381
v -35.664452 0.000004 -91.696960
v -32.277401 0.000013 -294.352448
v -24.591801 0.000031 -714.967773
v -39.774952 0.000008 -180.632477
v -22.451450 0.000016 -381.337616
v -15.161601 0.000021 -489.693451
v -31.065300 0.000002 -48.057762
v -35.781551 0.000011 -260.224426
v 11.045800 0.000010 -243.864731
v 10.457550 0.000010 -232.563110
v 31.847399 0.000020 -457.057159
v 30.761749 0.000019 -441.663574
v 34.400349 0.000025 -584.155640
v 34.750401 0.000024 -563.613525
v 12.566200 0.000005 -122.723122
v 18.423300 0.000014 -323.330750
v 17.101351 0.000013 -311.687592
v 9.728849 0.000009 -209.648254
v 9.603800 0.000008 -197.967682
v 28.280699 0.000018 -412.513489
v 26.927250 0.000017 -398.672729
v 34.632347 0.000023 -525.095703
v 34.217148 0.000022 -507.028625
v 16.587999 0.000003 -80.395477
v 14.675100 0.000012 -288.839172
v 13.597199 0.000012 -277.559601
v 29.620749 0.000029 -675.968140
v 24.093500 0.000016 -372.252625
v 22.650400 0.000015 -359.592010
v 9.864950 0.000007 -173.996094
v 32.800598 0.000020 -473.053528
v -24.751949 -0.000000 0.019880
v 22.335300 0.000001 -33.879761
v 11.771700 0.000011 -255.108002
v 33.741150 0.000026 -605.614990
v 11.609500 0.000006 -136.035004
v 19.799000 0.000014 -335.170227
v 10.015850 0.000009 -221.168915
v 29.565701 0.000018 -426.829834
v 34.818752 0.000023 -543.942200
v 15.054750 0.000004 -94.932442
v 15.847400 0.000013 -300.202881
v 27.433249 0.000030 -701.570679
v 9.647250 0.000008 -186.094360
v 25.525200 0.000016 -385.266083
v 33.598400 0.000021 -489.696045
v 12.625649 0.000011 -266.327789
v 20.229900 0.000002 -49.896721
v 32.744350 0.000027 -628.038452
v 21.213350 0.000015 -347.244324
v 10.842250 0.000006 -148.997437
v 13.714250 0.000004 -109.032043
v 24.786951 0.000031 -728.330200
v 18.313450 0.000003 -65.392845
v 31.380850 0.000028 -651.473511
v 10.261900 0.000007 -161.640869
v 24.626801 -0.000000 -0.188440
vt 0.000000 0.000000
vt 0.000000 0.119539
vt 0.000000 0.681283
vt 1.000000 0.641955
vt 1.000000 0.655893
vt 0.000000 0.414756
vt 1.000000 0.375427
vt 1.000000 0.394518
vt 0.000000 0.259507
vt 1.000000 0.220178
vt 1.000000 0.244988
vt 0.000000 0.843989
vt 0.000000 0.827792
vt 1.000000 0.788463
vt 0.000000 0.582076
vt 1.000000 0.542748
vt 1.000000 0.557373
vt 0.000000 0.723311
vt 1.000000 0.683983
vt 1.000000 0.698210
vt 0.000000 0.470155
vt 1.000000 0.430826
vt 1.000000 0.448131
vt 0.000000 0.331122
vt 1.000000 0.291794
vt 1.000000 0.313882
vt 0.000000 0.895266
vt 0.000000 0.877691
vt 1.000000 0.838362
vt 0.000000 0.625339
vt 1.000000 0.586010
vt 1.000000 0.600103
vt 0.000000 0.178898
vt 0.000000 0.149812
vt 1.000000 0.110483
vt 0.000000 0.520584
vt 1.000000 0.481255
vt 1.000000 0.497160
vt 0.000000 0.781397
vt 0.000000 0.766544
vt 1.000000 0.727216
vt 0.000000 0.394983
vt 1.000000 0.355654
vt 0.000000 1.000000
vt 0.000000 0.932035
vt 1.000000 0.892707
vt 0.000000 0.667365
vt 1.000000 0.628036
vt 0.000000 0.233698
vt 1.000000 0.194370
vt 0.000000 0.811985
vt 1.000000 0.772657
vt 0.000000 0.567193
vt 1.000000 0.527865
vt 0.000000 0.709218
vt 1.000000 0.669890
vt 0.000000 0.452298
vt 1.000000 0.412970
vt 0.000000 0.308174
vt 1.000000 0.268845
vt 0.000000 0.860610
vt 1.000000 0.821281
vt 0.000000 0.611108
vt 1.000000 0.571780
vt 1.000000 0.080210
vt 0.000000 0.751937
vt 1.000000 0.712609
vt 0.000000 0.504255
vt 1.000000 0.464926
vt 0.000000 0.374482
vt 1.000000 0.335154
vt 0.000000 0.653427
vt 1.000000 0.614099
vt 0.000000 0.913369
vt 1.000000 0.874041
vt 0.000000 0.206844
vt 1.000000 0.167516
vt 0.000000 0.552011
vt 1.000000 0.512683
vt 0.000000 0.796532
vt 1.000000 0.757204
vt 0.000000 0.695222
vt 0.000000 0.433846
vt 0.000000 0.284316
vt 1.000000 0.804660
vt 0.000000 0.596701
vt 1.000000 0.000000
vt 0.000000 0.487459
vt 0.000000 0.737539
vt 0.000000 0.353211
vt 1.000000 0.855937
vt 0.000000 0.639432
vt 1.000000 0.139569
vt 1.000000 0.742069
vt 0.000000 0.536488
vt 1.000000 1.000000
vn 0.000000 0.000000 1.000000
vn -0.000000 -1.000000 -0.000000
usemtl river.001
s 1
f 1/1/1 2/1/1 3/1/1
f 4/1/1 5/1/1 6/1/1
f 7/1/1 8/1/1 9/1/1
f 10/1/1 11/1/1 12/1/1
f 13/1/1 14/1/1 15/1/1
f 16/1/1 17/1/1 18/1/1
f 19/1/1 20/1/1 21/1/1
f 22/1/1 23/1/1 24/1/1
f 25/1/1 26/1/1 27/1/1
f 28/1/1 29/1/1 30/1/1
f 31/1/1 32/1/1 33/1/1
f 34/1/1 35/1/1 36/1/1
f 37/1/1 38/1/1 39/1/1
f 40/1/1 41/1/1 42/1/1
f 2/1/1 43/1/1 44/1/1
f 5/1/1 45/1/1 46/1/1
f 8/1/1 47/1/1 48/1/1
f 14/1/1 49/1/1 50/1/1
f 17/1/1 51/1/1 52/1/1
f 20/1/1 53/1/1 54/1/1
f 23/1/1 55/1/1 56/1/1
f 26/1/1 57/1/1 58/1/1
f 29/1/1 59/1/1 60/1/1
f 35/1/1 61/1/1 62/1/1
f 32/1/1 63/1/1 64/1/1
f 41/1/1 65/1/1 66/1/1
f 38/1/1 67/1/1 68/1/1
f 69/1/1 70/1/1 71/1/1
f 43/1/1 72/1/1 73/1/1
f 47/1/1 74/1/1 75/1/1
f 45/1/1 76/1/1 77/1/1
f 49/1/1 78/1/1 79/1/1
f 51/1/1 80/1/1 81/1/1
f 53/1/1 1/1/1 82/1/1
f 55/1/1 4/1/1 83/1/1
f 57/1/1 7/1/1 84/1/1
f 59/1/1 10/1/1 85/1/1
f 63/1/1 16/1/1 86/1/1
f 61/1/1 13/1/1 87/1/1
f 65/1/1 19/1/1 88/1/1
f 70/1/1 22/1/1 89/1/1
f 67/1/1 25/1/1 90/1/1
f 72/1/1 28/1/1 91/1/1
f 76/1/1 34/1/1 92/1/1
f 74/1/1 31/1/1 93/1/1
f 78/1/1 37/1/1 94/1/1
f 80/1/1 40/1/1 95/1/1
f 91/1/1 30/1/1 96/1/1
f 92/1/1 36/1/1 97/1/1
f 93/1/1 33/1/1 98/1/1
f 94/1/1 39/1/1 99/1/1
f 95/1/1 42/1/1 100/1/1
f 3/1/1 44/1/1 101/1/1
f 9/1/1 48/1/1 102/1/1
f 6/1/1 46/1/1 103/1/1
f 15/1/1 50/1/1 104/1/1
f 18/1/1 52/1/1 105/1/1
f 21/1/1 54/1/1 106/1/1
f 24/1/1 56/1/1 107/1/1
f 27/1/1 58/1/1 108/1/1
f 30/1/1 60/1/1 109/1/1
f 36/1/1 62/1/1 110/1/1
f 33/1/1 64/1/1 111/1/1
f 42/1/1 66/1/1 112/1/1
f 113/1/1 71/1/1 114/1/1
f 39/1/1 68/1/1 115/1/1
f 44/1/1 73/1/1 116/1/1
f 46/1/1 77/1/1 117/1/1
f 48/1/1 75/1/1 118/1/1
f 50/1/1 79/1/1 119/1/1
f 52/1/1 81/1/1 120/1/1
f 54/1/1 82/1/1 121/1/1
f 58/1/1 84/1/1 122/1/1
f 56/1/1 83/1/1 123/1/1
f 60/1/1 85/1/1 124/1/1
f 62/1/1 87/1/1 125/1/1
f 64/1/1 86/1/1 126/1/1
f 66/1/1 88/1/1 127/1/1
f 71/1/1 89/1/1 128/1/1
f 68/1/1 90/1/1 129/1/1
f 73/1/1 91/1/1 130/1/1
f 75/1/1 93/1/1 131/1/1
f 77/1/1 92/1/1 132/1/1
f 81/1/1 95/1/1 133/1/1
f 79/1/1 94/1/1 134/1/1
f 82/1/1 3/1/1 135/1/1
f 83/1/1 6/1/1 136/1/1
f 84/1/1 9/1/1 137/1/1
f 85/2/2 12/1/2 138/1/2
f 87/1/1 15/1/1 139/1/1
f 86/1/1 18/1/1 140/1/1
f 88/1/1 21/1/1 141/1/1
f 89/1/1 24/1/1 142/1/1
f 90/1/1 27/1/1 143/1/1
f 99/3/2 144/4/2 145/5/2
f 100/6/2 146/7/2 147/8/2
f 101/9/2 148/10/2 149/11/2
f 136/12/2 103/13/2 150/14/2
f 102/15/2 151/16/2 152/17/2
f 104/18/2 153/19/2 154/20/2
f 105/21/2 155/22/2 156/23/2
f 106/24/2 157/25/2 158/26/2
f 142/27/2 107/28/2 159/29/2
f 108/30/2 160/31/2 161/32/2
f 96/33/2 109/34/2 162/35/2
f 111/36/2 163/37/2 164/38/2
f 97/39/2 110/40/2 165/41/2
f 112/42/2 166/43/2 146/7/2
f 167/44/2 114/45/2 168/46/2
f 115/47/2 169/48/2 144/4/2
f 101/9/2 116/49/2 170/50/2
f 103/13/2 117/51/2 171/52/2
f 118/53/2 172/54/2 151/16/2
f 119/55/2 173/56/2 153/19/2
f 120/57/2 174/58/2 155/22/2
f 121/59/2 175/60/2 157/25/2
f 107/28/2 123/61/2 176/62/2
f 122/63/2 177/64/2 160/31/2
f 109/34/2 124/2/2 178/65/2
f 125/66/2 179/67/2 165/41/2
f 126/68/2 180/69/2 163/37/2
f 127/70/2 181/71/2 166/43/2
f 129/72/2 182/73/2 169/48/2
f 114/45/2 128/74/2 183/75/2
f 116/49/2 130/76/2 184/77/2
f 131/78/2 185/79/2 172/54/2
f 117/51/2 132/80/2 186/81/2
f 134/82/2 145/5/2 173/56/2
f 133/83/2 147/8/2 174/58/2
f 135/84/2 149/11/2 175/60/2
f 123/61/2 136/12/2 187/85/2
f 137/86/2 152/17/2 177/64/2
f 124/2/2 138/1/2 188/87/2
f 140/88/2 156/23/2 180/69/2
f 139/89/2 154/20/2 179/67/2
f 141/90/2 158/26/2 181/71/2
f 128/74/2 142/27/2 189/91/2
f 143/92/2 161/32/2 182/73/2
f 130/76/2 96/33/2 190/93/2
f 132/80/2 97/39/2 191/94/2
f 98/95/2 164/38/2 185/79/2
f 82/1/1 1/1/1 3/1/1
f 83/1/1 4/1/1 6/1/1
f 84/1/1 7/1/1 9/1/1
f 85/1/1 10/1/1 12/1/1
f 87/1/1 13/1/1 15/1/1
f 86/1/1 16/1/1 18/1/1
f 88/1/1 19/1/1 21/1/1
f 89/1/1 22/1/1 24/1/1
f 90/1/1 25/1/1 27/1/1
f 91/1/1 28/1/1 30/1/1
f 93/1/1 31/1/1 33/1/1
f 92/1/1 34/1/1 36/1/1
f 94/1/1 37/1/1 39/1/1
f 95/1/1 40/1/1 42/1/1
f 3/1/1 2/1/1 44/1/1
f 6/1/1 5/1/1 46/1/1
f 9/1/1 8/1/1 48/1/1
f 15/1/1 14/1/1 50/1/1
f 18/1/1 17/1/1 52/1/1
f 21/1/1 20/1/1 54/1/1
f 24/1/1 23/1/1 56/1/1
f 27/1/1 26/1/1 58/1/1
f 30/1/1 29/1/1 60/1/1
f 36/1/1 35/1/1 62/1/1
f 33/1/1 32/1/1 64/1/1
f 42/1/1 41/1/1 66/1/1
f 39/1/1 38/1/1 68/1/1
f 113/1/1 69/1/1 71/1/1
f 44/1/1 43/1/1 73/1/1
f 48/1/1 47/1/1 75/1/1
f 46/1/1 45/1/1 77/1/1
f 50/1/1 49/1/1 79/1/1
f 52/1/1 51/1/1 81/1/1
f 54/1/1 53/1/1 82/1/1
f 56/1/1 55/1/1 83/1/1
f 58/1/1 57/1/1 84/1/1
f 60/1/1 59/1/1 85/1/1
f 64/1/1 63/1/1 86/1/1
f 62/1/1 61/1/1 87/1/1
f 66/1/1 65/1/1 88/1/1
f 71/1/1 70/1/1 89/1/1
f 68/1/1 67/1/1 90/1/1
f 73/1/1 72/1/1 91/1/1
f 77/1/1 76/1/1 92/1/1
f 75/1/1 74/1/1 93/1/1
f 79/1/1 78/1/1 94/1/1
f 81/1/1 80/1/1 95/1/1
f 130/1/1 91/1/1 96/1/1
f 132/1/1 92/1/1 97/1/1
f 131/1/1 93/1/1 98/1/1
f 134/1/1 94/1/1 99/1/1
f 133/1/1 95/1/1 100/1/1
f 135/1/1 3/1/1 101/1/1
f 137/1/1 9/1/1 102/1/1
f 136/1/1 6/1/1 103/1/1
f 139/1/1 15/1/1 104/1/1
f 140/1/1 18/1/1 105/1/1
f 141/1/1 21/1/1 106/1/1
f 142/1/1 24/1/1 107/1/1
f 143/1/1 27/1/1 108/1/1
f 96/1/1 30/1/1 109/1/1
f 97/1/1 36/1/1 110/1/1
f 98/1/1 33/1/1 111/1/1
f 100/1/1 42/1/1 112/1/1
f 167/1/1 113/1/1 114/1/1
f 99/1/1 39/1/1 115/1/1
f 101/1/1 44/1/1 116/1/1
f 103/1/1 46/1/1 117/1/1
f 102/1/1 48/1/1 118/1/1
f 104/1/1 50/1/1 119/1/1
f 105/1/1 52/1/1 120/1/1
f 106/1/1 54/1/1 121/1/1
f 108/1/1 58/1/1 122/1/1
f 107/1/1 56/1/1 123/1/1
f 109/1/1 60/1/1 124/1/1
f 110/1/1 62/1/1 125/1/1
f 111/1/1 64/1/1 126/1/1
f 112/1/1 66/1/1 127/1/1
f 114/1/1 71/1/1 128/1/1
f 115/1/1 68/1/1 129/1/1
f 116/1/1 73/1/1 130/1/1
f 118/1/1 75/1/1 131/1/1
f 117/1/1 77/1/1 132/1/1
f 120/1/1 81/1/1 133/1/1
f 119/1/1 79/1/1 134/1/1
f 121/1/1 82/1/1 135/1/1
f 123/1/1 83/1/1 136/1/1
f 122/1/1 84/1/1 137/1/1
f 124/2/1 85/2/1 138/1/1
f 125/1/1 87/1/1 139/1/1
f 126/1/1 86/1/1 140/1/1
f 127/1/1 88/1/1 141/1/1
f 128/1/1 89/1/1 142/1/1
f 129/1/1 90/1/1 143/1/1
f 134/82/2 99/3/2 145/5/2
f 133/83/2 100/6/2 147/8/2
f 135/84/2 101/9/2 149/11/2
f 187/85/2 136/12/2 150/14/2
f 137/86/2 102/15/2 152/17/2
f 139/89/2 104/18/2 154/20/2
f 140/88/2 105/21/2 156/23/2
f 141/90/2 106/24/2 158/26/2
f 189/91/2 142/27/2 159/29/2
f 143/92/2 108/30/2 161/32/2
f 190/93/2 96/33/2 162/35/2
f 98/95/2 111/36/2 164/38/2
f 191/94/2 97/39/2 165/41/2
f 100/6/2 112/42/2 146/7/2
f 192/96/2 167/44/2 168/46/2
f 99/3/2 115/47/2 144/4/2
f 148/10/2 101/9/2 170/50/2
f 150/14/2 103/13/2 171/52/2
f 102/15/2 118/53/2 151/16/2
f 104/18/2 119/55/2 153/19/2
f 105/21/2 120/57/2 155/22/2
f 106/24/2 121/59/2 157/25/2
f 159/29/2 107/28/2 176/62/2
f 108/30/2 122/63/2 160/31/2
f 162/35/2 109/34/2 178/65/2
f 110/40/2 125/66/2 165/41/2
f 111/36/2 126/68/2 163/37/2
f 112/42/2 127/70/2 166/43/2
f 115/47/2 129/72/2 169/48/2
f 168/46/2 114/45/2 183/75/2
f 170/50/2 116/49/2 184/77/2
f 118/53/2 131/78/2 172/54/2
f 171/52/2 117/51/2 186/81/2
f 119/55/2 134/82/2 173/56/2
f 120/57/2 133/83/2 174/58/2
f 121/59/2 135/84/2 175/60/2
f 176/62/2 123/61/2 187/85/2
f 122/63/2 137/86/2 177/64/2
f 178/65/2 124/2/2 188/87/2
f 126/68/2 140/88/2 180/69/2
f 125/66/2 139/89/2 179/67/2
f 127/70/2 141/90/2 181/71/2
f 183/75/2 128/74/2 189/91/2
f 129/72/2 143/92/2 182/73/2
f 184/77/2 130/76/2 190/93/2
f 186/81/2 132/80/2 191/94/2
f 131/78/2 98/95/2 185/79/2
