# Blender v2.74 (sub 0) OBJ File: ''
# www.blender.org
mtllib circle1.mtl
o Circle_Circle.001
v 0.000000 0.000000 8.002034
v 1.561119 0.000000 7.848277
v 3.062246 0.000000 7.392915
v 4.445692 0.000000 6.653448
v 5.658293 0.000000 5.658293
v 6.653449 0.000000 4.445692
v 7.392915 0.000000 3.062246
v 7.848277 0.000000 1.561120
v 8.002034 0.000000 0.000001
v 7.848278 0.000000 -1.561118
v 7.392916 0.000000 -3.062245
v 6.653449 0.000000 -4.445692
v 5.658293 0.000000 -5.658293
v 4.445692 0.000000 -6.653449
v 3.062245 0.000000 -7.392916
v 1.561118 0.000000 -7.848278
v -0.000003 0.000000 -8.002034
v -1.561123 0.000000 -7.848277
v -3.062249 0.000000 -7.392914
v -4.445696 0.000000 -6.653446
v -5.658297 0.000000 -5.658289
v -6.653451 0.000000 -4.445687
v -7.392918 0.000000 -3.062240
v -7.848279 0.000000 -1.561113
v -8.002034 0.000000 0.000008
v -7.848276 0.000000 1.561128
v -7.392912 0.000000 3.062254
v -6.653443 0.000000 4.445700
v -5.658286 0.000000 5.658300
v -4.445683 0.000000 6.653454
v -3.062235 0.000000 7.392920
v -1.561107 0.000000 7.848279
v 0.780560 0.000000 7.925156
v 2.311683 0.000000 7.620596
v 3.753969 0.000000 7.023182
v 5.051992 0.000000 6.155870
v 6.155870 0.000000 5.051992
v 7.023182 0.000000 3.753969
v 7.620596 0.000000 2.311683
v 7.925156 0.000000 0.780560
v 7.925156 0.000000 -0.780559
v 7.620597 0.000000 -2.311682
v 7.023182 0.000000 -3.753968
v 6.155870 0.000000 -5.051992
v 5.051992 0.000000 -6.155870
v 3.753968 0.000000 -7.023182
v 2.311681 0.000000 -7.620597
v 0.780557 0.000000 -7.925156
v -0.780563 0.000000 -7.925155
v -2.311686 0.000000 -7.620595
v -3.753973 0.000000 -7.023180
v -5.051996 0.000000 -6.155868
v -6.155874 0.000000 -5.051988
v -7.023185 0.000000 -3.753964
v -7.620598 0.000000 -2.311676
v -7.925156 0.000000 -0.780552
v -7.925155 0.000000 0.780568
v -7.620594 0.000000 2.311691
v -7.023177 0.000000 3.753977
v -6.155864 0.000000 5.052000
v -5.051984 0.000000 6.155877
v -3.753959 0.000000 7.023187
v -2.311671 0.000000 7.620600
v -0.780554 0.000000 7.925157
v 1.361465 0.000000 6.844549
v 2.670611 0.000000 6.447424
v 3.877126 0.000000 5.802528
v 4.934646 0.000000 4.934645
v 5.802529 0.000000 3.877125
v 6.447425 0.000000 2.670610
v 6.844550 0.000000 1.361465
v 6.978642 0.000000 -0.000000
v 6.844550 0.000000 -1.361466
v 6.447425 0.000000 -2.670611
v 5.802529 0.000000 -3.877127
v 4.934646 0.000000 -4.934647
v 3.877126 0.000000 -5.802531
v 2.670609 0.000000 -6.447427
v 1.361464 0.000000 -6.844552
v -0.000003 0.000000 -6.978643
v -1.361469 0.000000 -6.844551
v -2.670614 0.000000 -6.447425
v -3.877130 0.000000 -5.802528
v -4.934649 0.000000 -4.934644
v -5.802533 0.000000 -3.877123
v -6.447428 0.000000 -2.670607
v -6.844552 0.000000 -1.361461
v -6.978643 0.000000 0.000006
v -6.844549 0.000000 1.361472
v -6.447423 0.000000 2.670617
v -5.802525 0.000000 3.877133
v -4.934640 0.000000 4.934651
v -3.877119 0.000000 5.802534
v -2.670602 0.000000 6.447428
v -1.361456 0.000000 6.844551
v -0.000000 0.000000 6.978642
vt 0.000000 0.546243
vt 0.000000 0.497266
vt 0.063551 0.539979
vt 0.000000 0.448290
vt 0.009548 0.400254
vt 0.063551 0.454553
vt 0.019096 0.352219
vt 0.037825 0.306971
vt 0.080205 0.370769
vt 0.056554 0.261722
vt 0.083745 0.221000
vt 0.112873 0.291846
vt 0.110935 0.180277
vt 0.145542 0.145646
vt 0.160299 0.220818
vt 0.180149 0.111014
vt 0.220843 0.083804
vt 0.220661 0.160413
vt 0.261536 0.056595
vt 0.306753 0.037852
vt 0.291639 0.112953
vt 0.351969 0.019110
vt 0.399970 0.009555
vt 0.370506 0.080262
vt 0.447971 0.000000
vt 0.496913 0.000000
vt 0.454231 0.063596
vt 0.545855 0.000000
vt 0.593856 0.009555
vt 0.539595 0.063596
vt 0.641857 0.019110
vt 0.687073 0.037852
vt 0.623320 0.080262
vt 0.732289 0.056594
vt 0.772983 0.083804
vt 0.702187 0.112953
vt 0.813677 0.111014
vt 0.848284 0.145646
vt 0.773165 0.160412
vt 0.882891 0.180277
vt 0.910081 0.221000
vt 0.833528 0.220817
vt 0.937272 0.261722
vt 0.956001 0.306970
vt 0.880954 0.291846
vt 0.974730 0.352219
vt 0.984278 0.400254
vt 0.913622 0.370769
vt 0.993826 0.448289
vt 0.993826 0.497266
vt 0.930276 0.454553
vt 0.993826 0.546242
vt 0.984278 0.594278
vt 0.930276 0.539979
vt 0.974730 0.642313
vt 0.956001 0.687561
vt 0.913622 0.623763
vt 0.937272 0.732810
vt 0.910081 0.773532
vt 0.880954 0.702686
vt 0.882891 0.814255
vt 0.848284 0.848886
vt 0.833528 0.773714
vt 0.813677 0.883518
vt 0.772983 0.910728
vt 0.773165 0.834119
vt 0.732290 0.937937
vt 0.687073 0.956680
vt 0.702187 0.881579
vt 0.641857 0.975422
vt 0.593856 0.984977
vt 0.623320 0.914270
vt 0.545855 0.994532
vt 0.496913 0.994532
vt 0.539595 0.930936
vt 0.447971 0.994532
vt 0.399970 0.984977
vt 0.454230 0.930936
vt 0.351969 0.975422
vt 0.306752 0.956679
vt 0.370506 0.914270
vt 0.261536 0.937937
vt 0.220843 0.910727
vt 0.291639 0.881579
vt 0.180149 0.883517
vt 0.145542 0.848886
vt 0.220661 0.834119
vt 0.110935 0.814254
vt 0.083745 0.773532
vt 0.160299 0.773714
vt 0.056554 0.732809
vt 0.037825 0.687561
vt 0.112872 0.702685
vt 0.019096 0.642313
vt 0.009548 0.594278
vt 0.080205 0.623763
vn 0.000000 1.000000 0.000000
usemtl None
s off
f 2/1/1 34/2/1 65/3/1
f 3/4/1 35/5/1 66/6/1
f 4/7/1 36/8/1 67/9/1
f 5/10/1 37/11/1 68/12/1
f 6/13/1 38/14/1 69/15/1
f 7/16/1 39/17/1 70/18/1
f 8/19/1 40/20/1 71/21/1
f 9/22/1 41/23/1 72/24/1
f 10/25/1 42/26/1 73/27/1
f 11/28/1 43/29/1 74/30/1
f 12/31/1 44/32/1 75/33/1
f 13/34/1 45/35/1 76/36/1
f 14/37/1 46/38/1 77/39/1
f 15/40/1 47/41/1 78/42/1
f 16/43/1 48/44/1 79/45/1
f 17/46/1 49/47/1 80/48/1
f 18/49/1 50/50/1 81/51/1
f 19/52/1 51/53/1 82/54/1
f 20/55/1 52/56/1 83/57/1
f 21/58/1 53/59/1 84/60/1
f 22/61/1 54/62/1 85/63/1
f 23/64/1 55/65/1 86/66/1
f 24/67/1 56/68/1 87/69/1
f 25/70/1 57/71/1 88/72/1
f 26/73/1 58/74/1 89/75/1
f 27/76/1 59/77/1 90/78/1
f 28/79/1 60/80/1 91/81/1
f 29/82/1 61/83/1 92/84/1
f 30/85/1 62/86/1 93/87/1
f 31/88/1 63/89/1 94/90/1
f 32/91/1 64/92/1 95/93/1
f 1/94/1 33/95/1 96/96/1
f 96/96/1 33/95/1 65/3/1
f 33/95/1 2/1/1 65/3/1
f 95/93/1 64/92/1 96/96/1
f 64/92/1 1/94/1 96/96/1
f 94/90/1 63/89/1 95/93/1
f 63/89/1 32/91/1 95/93/1
f 93/87/1 62/86/1 94/90/1
f 62/86/1 31/88/1 94/90/1
f 92/84/1 61/83/1 93/87/1
f 61/83/1 30/85/1 93/87/1
f 91/81/1 60/80/1 92/84/1
f 60/80/1 29/82/1 92/84/1
f 90/78/1 59/77/1 91/81/1
f 59/77/1 28/79/1 91/81/1
f 89/75/1 58/74/1 90/78/1
f 58/74/1 27/76/1 90/78/1
f 88/72/1 57/71/1 89/75/1
f 57/71/1 26/73/1 89/75/1
f 87/69/1 56/68/1 88/72/1
f 56/68/1 25/70/1 88/72/1
f 86/66/1 55/65/1 87/69/1
f 55/65/1 24/67/1 87/69/1
f 85/63/1 54/62/1 86/66/1
f 54/62/1 23/64/1 86/66/1
f 84/60/1 53/59/1 85/63/1
f 53/59/1 22/61/1 85/63/1
f 83/57/1 52/56/1 84/60/1
f 52/56/1 21/58/1 84/60/1
f 82/54/1 51/53/1 83/57/1
f 51/53/1 20/55/1 83/57/1
f 81/51/1 50/50/1 82/54/1
f 50/50/1 19/52/1 82/54/1
f 80/48/1 49/47/1 81/51/1
f 49/47/1 18/49/1 81/51/1
f 79/45/1 48/44/1 80/48/1
f 48/44/1 17/46/1 80/48/1
f 78/42/1 47/41/1 79/45/1
f 47/41/1 16/43/1 79/45/1
f 77/39/1 46/38/1 78/42/1
f 46/38/1 15/40/1 78/42/1
f 76/36/1 45/35/1 77/39/1
f 45/35/1 14/37/1 77/39/1
f 75/33/1 44/32/1 76/36/1
f 44/32/1 13/34/1 76/36/1
f 74/30/1 43/29/1 75/33/1
f 43/29/1 12/31/1 75/33/1
f 73/27/1 42/26/1 74/30/1
f 42/26/1 11/28/1 74/30/1
f 72/24/1 41/23/1 73/27/1
f 41/23/1 10/25/1 73/27/1
f 71/21/1 40/20/1 72/24/1
f 40/20/1 9/22/1 72/24/1
f 70/18/1 39/17/1 71/21/1
f 39/17/1 8/19/1 71/21/1
f 69/15/1 38/14/1 70/18/1
f 38/14/1 7/16/1 70/18/1
f 68/12/1 37/11/1 69/15/1
f 37/11/1 6/13/1 69/15/1
f 67/9/1 36/8/1 68/12/1
f 36/8/1 5/10/1 68/12/1
f 66/6/1 35/5/1 67/9/1
f 35/5/1 4/7/1 67/9/1
f 65/3/1 34/2/1 66/6/1
f 34/2/1 3/4/1 66/6/1
