# Blender v2.74 (sub 0) OBJ File: ''
# www.blender.org
mtllib triangle.mtl
o Circle
v 0.000000 0.000000 -6.024709
v -1.175362 0.000000 -5.908946
v -2.305556 0.000000 -5.566105
v -3.347149 0.000000 -5.009362
v -4.260112 0.000000 -4.260112
v -5.009363 0.000000 -3.347149
v -5.566105 0.000000 -2.305556
v -5.908946 0.000000 -1.175363
v -6.024709 0.000000 -0.000000
v -5.908946 0.000000 1.175362
v -5.566105 0.000000 2.305555
v -5.009363 0.000000 3.347149
v -4.260112 0.000000 4.260112
v -3.347149 0.000000 5.009363
v -2.305555 0.000000 5.566106
v -1.175361 0.000000 5.908946
v 0.000002 0.000000 6.024709
v 1.175365 0.000000 5.908945
v 2.305559 0.000000 5.566104
v 3.347152 0.000000 5.009360
v 4.260115 0.000000 4.260110
v 5.009365 0.000000 3.347145
v 5.566107 0.000000 2.305552
v 5.908947 0.000000 1.175357
v 6.024709 0.000000 -0.000006
v 5.908945 0.000000 -1.175369
v 5.566103 0.000000 -2.305562
v 5.009358 0.000000 -3.347155
v 4.260107 0.000000 -4.260118
v 3.347142 0.000000 -5.009367
v 2.305548 0.000000 -5.566109
v 1.175353 0.000000 -5.908947
vt 0.644066 1.067967
vt 0.109846 0.905914
vt 0.352376 0.106397
vt 0.816952 0.975557
vt 0.735060 1.030276
vt 0.941315 0.824020
vt 0.886596 0.905913
vt 0.979006 0.441337
vt 0.979006 0.733026
vt 0.998221 0.537936
vt 0.998221 0.636427
vt 0.886596 0.268450
vt 0.941315 0.350343
vt 0.735059 0.144087
vt 0.816952 0.198806
vt 0.547466 0.087182
vt 0.644065 0.106396
vt 0.448975 0.087182
vt 0.055126 0.350343
vt 0.261382 0.144088
vt 0.109845 0.268451
vt 0.179489 0.198807
vt 0.017436 0.733027
vt 0.017435 0.441338
vt -0.001779 0.636428
vt -0.001779 0.537937
vt 0.055127 0.824021
vt 0.261383 1.030276
vt 0.179490 0.975557
vt 0.352377 1.067967
vt 0.547467 1.087182
vt 0.448976 1.087182
vn 0.000000 1.000000 0.000000
usemtl None
s off
f 2/1/1 8/2/1 18/3/1
f 32/4/1 1/5/1 2/1/1
f 30/6/1 31/7/1 32/4/1
f 26/8/1 29/9/1 30/6/1
f 26/8/1 27/10/1 28/11/1
f 24/12/1 25/13/1 26/8/1
f 22/14/1 23/15/1 24/12/1
f 20/16/1 21/17/1 22/14/1
f 22/14/1 19/18/1 20/16/1
f 14/19/1 17/20/1 18/3/1
f 14/19/1 15/21/1 16/22/1
f 10/23/1 13/24/1 14/19/1
f 13/24/1 11/25/1 12/26/1
f 18/3/1 9/27/1 10/23/1
f 6/28/1 7/29/1 8/2/1
f 2/1/1 5/30/1 6/28/1
f 2/1/1 3/31/1 4/32/1
f 30/6/1 32/4/1 2/1/1
f 26/8/1 28/11/1 29/9/1
f 2/1/1 24/12/1 26/8/1
f 24/12/1 2/1/1 22/14/1
f 14/19/1 16/22/1 17/20/1
f 10/23/1 11/25/1 13/24/1
f 18/3/1 8/2/1 9/27/1
f 2/1/1 4/32/1 5/30/1
f 26/8/1 30/6/1 2/1/1
f 2/1/1 19/18/1 22/14/1
f 10/23/1 14/19/1 18/3/1
f 2/1/1 6/28/1 8/2/1
f 18/3/1 19/18/1 2/1/1
